<?xml version="1.0" encoding="utf-8"?>
<!-- Generator: Adobe Illustrator 27.5.0, SVG Export Plug-In . SVG Version: 6.00 Build 0)  -->
<svg version="1.1" id="Layer_1" xmlns="http://www.w3.org/2000/svg" xmlns:xlink="http://www.w3.org/1999/xlink" x="0px" y="0px"
	 viewBox="0 0 3799.571 3707.571" style="enable-background:new 0 0 3799.571 3707.571;" xml:space="preserve">
<rect x="0" style="fill:#F1F2F2;" width="3799.571" height="3707.571"/>
<g>
	<path style="fill:#008DE3;" d="M2630.071,2827.696H1169.5c-134.55,0-243.625-109.074-243.625-243.625V1123.5
		c0-134.55,109.074-243.625,243.625-243.625h1460.571c134.55,0,243.625,109.074,243.625,243.625v1460.571
		C2873.696,2718.622,2764.622,2827.696,2630.071,2827.696z"/>
	<g>
		<g>
			<path style="fill:#FFFFFF;" d="M1414.646,1211.818c85.747,0,154.042,69.383,153.389,154.568
				c-0.648,85.184-70,154.568-155.747,154.568c-85.179,0-154.037-69.384-153.389-154.568
				C1259.547,1281.202,1329.467,1211.818,1414.646,1211.818z"/>
		</g>
		<g>
			<polygon style="fill:#FFFFFF;" points="1545.093,1637.731 1538.551,2495.753 1271.726,2495.753 1278.268,1637.731 			"/>
		</g>
		<g>
			<path style="fill:#FFFFFF;" d="M2223.888,1616.856c270.216,0,318.508,177.133,316.743,408.42l-3.591,470.477h-266.262
				l3.178-416.885c0.762-99.847-0.516-227.905-137.034-227.905c-138.772,0-160.472,108.312-161.328,220.569l-3.233,424.221h-266.829
				l6.542-858.023h255.544l-0.893,117.335h3.949C2006.724,1687.936,2094.144,1616.856,2223.888,1616.856z"/>
		</g>
	</g>
</g>
</svg>
