<?xml version="1.0" encoding="utf-8"?>
<!-- Generator: Adobe Illustrator 27.5.0, SVG Export Plug-In . SVG Version: 6.00 Build 0)  -->
<svg version="1.1" id="Layer_1" xmlns="http://www.w3.org/2000/svg" xmlns:xlink="http://www.w3.org/1999/xlink" x="0px" y="0px"
	 viewBox="0 0 2000 2000" style="enable-background:new 0 0 2000 2000;" xml:space="preserve">
<g>
	<rect style="fill:#FFFFFF;" width="2000" height="2000"/>
	<g>
		<path d="M1150.647,913.721l476.942-636.806l-174.072,2.418l-389.245,519.424L672.202,276.915l-430.345,2.015l606.231,808.312
			l-476.482,635.843h172.863l389.978-520.693l390.53,520.693l280.534-0.524h0.367l152.265-0.282L1150.647,913.721z
			 M1371.316,1621.945l-15.352-20.752l-7.672-10.376l-350.163-473.456l-85.751-115.907L482.012,419.558h175.684l343.265,463.689
			l85.759,115.826l462.698,622.872H1371.316z"/>
		<path style="fill:#FFFFFF;" d="M1086.72,999.073l-85.759-115.826L657.696,419.558H482.012l430.365,581.897l85.751,115.907
			l350.163,473.456l7.672,10.376l15.352,20.752h178.102L1086.72,999.073z M1063.147,967.946l423.209,571.295l-0.193-0.016
			L1063.147,967.946z"/>
	</g>
</g>
</svg>
