<?xml version="1.0" encoding="utf-8"?>
<!-- Generator: Adobe Illustrator 27.5.0, SVG Export Plug-In . SVG Version: 6.00 Build 0)  -->
<svg version="1.1" id="Vrstva_1" xmlns="http://www.w3.org/2000/svg" xmlns:xlink="http://www.w3.org/1999/xlink" x="0px" y="0px"
	 viewBox="0 0 627.724 619.89" style="enable-background:new 0 0 627.724 619.89;" xml:space="preserve">
<rect y="11" style="fill:#FFFFFF;" width="627.724" height="597.89"/>
<g>
	<g id="XMLID_00000033357121813310316610000008577893764276608669_">
		<g>
			
				<radialGradient id="SVGID_1_" cx="189.271" cy="505.8352" r="429.0036" gradientTransform="matrix(0.5996 -0.8003 0.5602 0.4197 -207.5889 444.9941)" gradientUnits="userSpaceOnUse">
				<stop  offset="0" style="stop-color:#FDC352"/>
				<stop  offset="0.2709" style="stop-color:#FD913D"/>
				<stop  offset="0.5223" style="stop-color:#E63951"/>
				<stop  offset="0.7849" style="stop-color:#B12984"/>
				<stop  offset="1" style="stop-color:#6739C0"/>
			</radialGradient>
			<path style="fill:url(#SVGID_1_);" d="M522.261,177.929c0.164,87.469,0.164,174.961,0.117,262.43
				c-0.023,45.898-30.293,76.209-76.249,76.281c-88.183,0.12-176.342,0.12-264.525,0c-46.167-0.048-76.624-30.288-76.694-75.875
				c-0.094-43.961-0.023-87.923-0.023-131.884c0.023,0,0.07,0,0.094,0c0-43.961-0.188-87.923,0.07-131.884
				c0.258-45.013,30.621-74.847,76.038-74.919c88.183-0.096,176.366-0.12,264.549,0C491.897,102.15,522.19,132.127,522.261,177.929z
				 M472.272,309.072c0-27.371,0.328-54.767-0.07-82.114c-0.657-44.368-30.598-74.632-75.053-75.038
				c-56.084-0.502-112.169-0.502-168.253,0.072c-42.72,0.406-73.365,30.933-73.787,73.46c-0.539,55.627-0.492,111.278-0.023,166.929
				c0.375,43.961,31.161,74.058,75.686,74.369c54.725,0.359,109.473,0.359,164.197,0.072c46.964-0.263,76.882-30.264,77.257-76.998
				C472.46,362.907,472.272,335.99,472.272,309.072z"/>
			<path style="fill:#FFFFFF;" d="M472.202,226.959c0.399,27.347,0.07,54.743,0.07,82.114c0,26.917,0.188,53.834-0.047,80.751
				c-0.375,46.734-30.293,76.735-77.257,76.998c-54.725,0.287-109.473,0.287-164.197-0.072
				c-44.525-0.311-75.311-30.407-75.686-74.369c-0.469-55.651-0.516-111.302,0.023-166.929c0.422-42.527,31.067-73.054,73.787-73.46
				c56.084-0.574,112.169-0.574,168.253-0.072C441.604,152.327,471.546,182.591,472.202,226.959z M441.464,393.099
				c0.328-55.627,0.305-111.254,0-166.905c-0.141-26.606-17.538-43.675-44.408-43.794c-55.616-0.239-111.255-0.239-166.87,0
				c-26.776,0.12-44.291,17.331-44.431,43.818c-0.281,55.173-0.258,110.37,0,165.543c0.117,27.395,17.421,44.296,45.111,44.535
				c27.151,0.239,54.279,0.048,81.407,0.048c28.511,0,56.999,0.239,85.487-0.072C423.738,435.985,441.299,418.892,441.464,393.099z"
				/>
			
				<radialGradient id="SVGID_00000060718994896514562630000014421343643287213730_" cx="189.271" cy="505.8352" r="429.0036" gradientTransform="matrix(0.5996 -0.8003 0.5602 0.4197 -207.5889 444.9941)" gradientUnits="userSpaceOnUse">
				<stop  offset="0" style="stop-color:#FDC352"/>
				<stop  offset="0.2709" style="stop-color:#FD913D"/>
				<stop  offset="0.5223" style="stop-color:#E63951"/>
				<stop  offset="0.7849" style="stop-color:#B12984"/>
				<stop  offset="1" style="stop-color:#6739C0"/>
			</radialGradient>
			<path style="fill:url(#SVGID_00000060718994896514562630000014421343643287213730_);" d="M441.464,226.194
				c0.305,55.651,0.328,111.278,0,166.905c-0.164,25.794-17.726,42.886-43.705,43.173c-28.488,0.311-56.975,0.072-85.487,0.072
				c-27.128,0-54.256,0.191-81.407-0.048c-27.691-0.239-44.994-17.14-45.111-44.535c-0.258-55.173-0.281-110.37,0-165.543
				c0.141-26.487,17.655-43.698,44.431-43.818c55.616-0.239,111.255-0.239,166.87,0
				C423.925,182.519,441.323,199.587,441.464,226.194z M416.329,226.982c0.188-10.064-8.441-19.005-18.57-19.22
				s-18.945,8.319-19.156,18.503c-0.188,10.375,8.019,18.789,18.476,18.981C407.466,245.437,416.141,237.19,416.329,226.982z
				 M389.998,311.822c1.008-42.192-31.653-76.52-73.552-77.333c-41.383-0.789-75.756,31.961-76.6,73.006
				c-0.891,41.953,32.169,76.066,74.256,76.664C354.805,384.756,389.013,352.149,389.998,311.822z"/>
			<path style="fill:#FFFFFF;" d="M397.759,207.763c10.129,0.215,18.757,9.156,18.57,19.22c-0.188,10.207-8.863,18.455-19.25,18.263
				c-10.457-0.191-18.664-8.606-18.476-18.981C378.814,216.082,387.63,207.548,397.759,207.763z"/>
			<path style="fill:#FFFFFF;" d="M316.446,234.489c41.899,0.813,74.56,35.14,73.552,77.333
				c-0.985,40.328-35.193,72.934-75.897,72.337c-42.087-0.598-75.147-34.71-74.256-76.664
				C240.69,266.45,275.062,233.7,316.446,234.489z M314.594,355.663c26.331,0.096,47.48-20.75,47.362-46.687
				c-0.141-25.196-21.055-45.802-46.682-45.993c-26.213-0.191-47.55,20.869-47.339,46.663
				C268.146,335.009,289.037,355.592,314.594,355.663z"/>
			
				<radialGradient id="SVGID_00000142865944834213221670000011507828759897667713_" cx="189.271" cy="505.8352" r="429.0036" gradientTransform="matrix(0.5996 -0.8003 0.5602 0.4197 -207.5889 444.9941)" gradientUnits="userSpaceOnUse">
				<stop  offset="0" style="stop-color:#FDC352"/>
				<stop  offset="0.2709" style="stop-color:#FD913D"/>
				<stop  offset="0.5223" style="stop-color:#E63951"/>
				<stop  offset="0.7849" style="stop-color:#B12984"/>
				<stop  offset="1" style="stop-color:#6739C0"/>
			</radialGradient>
			<path style="fill:url(#SVGID_00000142865944834213221670000011507828759897667713_);" d="M361.956,308.977
				c0.117,25.937-21.032,46.782-47.362,46.687c-25.557-0.072-46.448-20.654-46.659-46.017
				c-0.211-25.794,21.125-46.854,47.339-46.663C340.901,263.175,361.815,283.781,361.956,308.977z"/>
		</g>
		<g>
		</g>
	</g>
</g>
</svg>
